<?xml version="1.0" encoding="UTF-8" standalone="no"?>
<svg
   xmlns:dc="http://purl.org/dc/elements/1.1/"
   xmlns:cc="http://creativecommons.org/ns#"
   xmlns:rdf="http://www.w3.org/1999/02/22-rdf-syntax-ns#"
   xmlns:svg="http://www.w3.org/2000/svg"
   xmlns="http://www.w3.org/2000/svg"
   viewBox="0 0 264.44 264.06668"
   height="264.06668"
   width="264.44"
   xml:space="preserve"
   id="svg2"
   version="1.1"><metadata
     id="metadata8"><rdf:RDF><cc:Work
         rdf:about=""><dc:format>image/svg+xml</dc:format><dc:type
           rdf:resource="http://purl.org/dc/dcmitype/StillImage" /></cc:Work></rdf:RDF></metadata><defs
     id="defs6" /><g
     transform="matrix(1.3333333,0,0,-1.3333333,0,264.06667)"
     id="g10"><g
       transform="scale(0.1)"
       id="g12"><path
         id="path14"
         style="fill:#ffffff;fill-opacity:1;fill-rule:nonzero;stroke:none"
         d="m 989.18,1104.76 52.77,-382.881 173.47,289.851 -73.6,-318.808 187,178.906 -97.38,-236.199 155.59,116.121 C 1314.61,554.66 1251.49,444.16 989.18,354.34 v 0 0 C 726.863,444.16 663.75,554.66 591.328,751.75 L 746.914,635.629 649.539,871.828 836.543,692.922 762.938,1011.73 936.402,721.879 989.18,1104.76 v 0" /><path
         id="path16"
         style="fill:#ffffff;fill-opacity:1;fill-rule:nonzero;stroke:none"
         d="m 714.383,1233.04 c -79.485,0 -126.945,42.53 -126.945,114 v 171.08 h 65.894 v -168.39 c 0,-41.52 21.832,-64.35 61.563,-64.35 40.738,0 62.339,21.87 62.339,63.17 v 169.57 h 66.332 v -169.95 c 0,-71.03 -49.496,-115.13 -129.183,-115.13" /><path
         id="path18"
         style="fill:#ffffff;fill-opacity:1;fill-rule:nonzero;stroke:none"
         d="m 991.648,1237.78 h -92.023 v 280.34 h 93.391 c 68.274,0 105.894,-26.51 105.894,-74.46 0,-25.23 -13.16,-44.65 -38.28,-56.55 33.68,-11.89 50.78,-34.13 50.78,-66.29 0,-53.59 -42.5,-83.04 -119.762,-83.04 m -28.359,46.81 h 28.359 c 25.632,0 56.092,6.55 56.092,37.8 0,32.21 -30.97,39.06 -57.033,39.06 h -27.418 z m 0,120.91 h 23.945 c 32.066,0 49.806,12.03 49.806,33.84 0,21.45 -15.47,31.9 -47.192,31.9 h -26.559 v -65.74" /><path
         id="path20"
         style="fill:#ffffff;fill-opacity:1;fill-rule:nonzero;stroke:none"
         d="m 1295.98,1233.04 c -90.74,0 -149.33,56.66 -149.33,144.53 0,86.83 60.74,145.23 151.12,145.23 33.52,0 61.73,-6.6 86.22,-20.2 l 2.15,-1.19 -9.85,-57.09 -4.33,2.89 c -24.07,16.16 -46.96,23.61 -71.96,23.61 -53.91,0 -86.13,-34.74 -86.13,-92.9 0,-57.1 33.32,-92.54 87.03,-92.54 25.43,0 50.47,7.64 76.53,23.32 l 4.29,2.58 9.3,-53.25 -2.07,-1.21 c -26.76,-15.31 -59.77,-23.78 -92.97,-23.78" /><path
         id="path22"
         style="fill:#ffffff;fill-opacity:1;fill-rule:nonzero;stroke:none"
         d="M 989.18,294.969 C 679.492,382.699 531.68,587.16 531.68,878.641 V 1568.6 h 915 V 878.641 c 0,-291.481 -147.82,-495.942 -457.5,-583.672 z M 494.18,1606.1 V 873.949 c 0,-307.699 167.418,-530.48 495,-617.847 327.57,87.367 495,310.148 495,617.847 V 1606.1 h -990" /><path
         id="path24"
         style="fill:#ffffff;fill-opacity:1;fill-rule:nonzero;stroke:none"
         d="m 989.195,1138.48 c 69.015,0 78.355,-28 133.945,-27.66 55.39,-0.34 64.88,27.66 133.9,27.66 69.02,0 78.52,-28 133.95,-27.66 v 64.29 c -55.43,-0.38 -64.93,27.28 -133.95,27.28 -69.02,0 -78.51,-27.66 -133.9,-27.28 -55.59,-0.38 -64.93,27.28 -133.945,27.28 -69.027,0 -78.359,-27.66 -133.945,-27.28 -55.391,-0.38 -64.891,27.28 -133.906,27.28 -69.028,0 -78.559,-27.66 -133.946,-27.28 v -64.29 c 55.387,-0.34 64.918,27.66 133.946,27.66 69.015,0 78.515,-28 133.906,-27.66 55.586,-0.34 64.918,27.66 133.945,27.66" /><path
         id="path26"
         style="fill:#ffffff;fill-opacity:1;fill-rule:nonzero;stroke:none"
         d="m 1032.93,1022.32 c 33.29,-7.96 49.14,-23.172 90.21,-22.918 55.39,-0.347 64.88,27.658 133.9,27.658 69.02,0 78.52,-28.005 133.95,-27.658 v 64.278 c -55.43,-0.37 -64.93,27.28 -133.95,27.28 -69.02,0 -78.51,-27.65 -133.9,-27.28 -44.63,-0.3 -59.47,17.46 -99.29,24.48 l 9.08,-65.84" /><path
         id="path28"
         style="fill:#ffffff;fill-opacity:1;fill-rule:nonzero;stroke:none"
         d="m 855.25,999.402 c 41.055,-0.254 56.898,14.948 90.18,22.918 l 9.074,65.83 c -39.801,-7.02 -54.641,-24.77 -99.254,-24.47 -55.391,-0.37 -64.891,27.28 -133.906,27.28 -69.028,0 -78.559,-27.65 -133.946,-27.28 v -64.278 c 55.387,-0.347 64.918,27.658 133.946,27.658 69.015,0 78.515,-28.005 133.906,-27.658" /><path
         id="path30"
         style="fill:#ffffff;fill-opacity:1;fill-rule:nonzero;stroke:none"
         d="m 1048.93,906.219 c 18.83,-6.469 33.3,-14.379 55.67,-17.188 l 38.58,64.469 c -6.03,-0.82 -12.61,-1.289 -20.04,-1.238 -38.19,-0.25 -54.55,12.718 -83.43,20.859 l 9.22,-66.902" /><path
         id="path32"
         style="fill:#ffffff;fill-opacity:1;fill-rule:nonzero;stroke:none"
         d="m 1225.63,913.34 c 9.02,1.422 19.28,2.301 31.41,2.301 69.02,0 78.52,-28 133.95,-27.661 v 64.282 c -55.43,-0.371 -64.93,27.289 -133.95,27.289 -5.83,0 -11.21,-0.223 -16.26,-0.582 l -15.15,-65.629" /><path
         id="path34"
         style="fill:#ffffff;fill-opacity:1;fill-rule:nonzero;stroke:none"
         d="m 752.727,913.34 -15.153,65.629 c -5.039,0.359 -10.406,0.582 -16.23,0.582 -69.028,0 -78.559,-27.66 -133.946,-27.289 V 887.98 c 55.387,-0.339 64.918,27.661 133.946,27.661 12.113,0 22.367,-0.879 31.383,-2.301" /><path
         id="path36"
         style="fill:#ffffff;fill-opacity:1;fill-rule:nonzero;stroke:none"
         d="m 873.762,889.031 c 22.371,2.797 36.84,10.699 55.664,17.18 l 9.222,66.91 c -28.863,-8.152 -45.222,-21.109 -83.398,-20.859 -7.441,-0.051 -14.035,0.418 -20.074,1.25 l 38.586,-64.481" /></g></g></svg>